<?xml version="1.0" encoding="UTF-8" standalone="no"?>
<!DOCTYPE svg PUBLIC "-//W3C//DTD SVG 1.1//EN" "http://www.w3.org/Graphics/SVG/1.1/DTD/svg11.dtd">
<svg width="100%" height="100%" viewBox="0 0 513 512" version="1.1" xmlns="http://www.w3.org/2000/svg" xmlns:xlink="http://www.w3.org/1999/xlink" xml:space="preserve" xmlns:serif="http://www.serif.com/" style="fill-rule:evenodd;clip-rule:evenodd;stroke-linejoin:round;stroke-miterlimit:2;">
    <g transform="matrix(1,0,0,1,0,31)">
        <path d="M15,30L107,30C115.27,30 122,36.73 122,45C122,46.293 120.102,28.738 150.586,303.113C133.871,309.688 122,325.977 122,345C122,369.813 142.188,389.988 167,389.988L184.578,389.988C182.914,394.684 182,399.742 182,405C182,429.813 202.188,450 227,450C251.813,450 272,429.813 272,405C272,399.742 271.086,394.684 269.422,389.988L364.582,389.988C362.914,394.684 362,399.742 362,405C362,429.813 382.188,450 407,450C431.813,450 452,429.813 452,405C452,380.188 431.813,360 407,360L167,360C158.73,360 152,353.27 152,345C152,336.73 158.73,330 167,330L441.586,330C463.676,330 482.344,314.188 485.973,292.398L511.797,137.465C512.52,133.117 511.297,128.668 508.445,125.305C505.594,121.941 501.41,120 497,120L452,120L452,45C452,36.715 445.285,30 437,30L317,30C308.715,30 302,36.715 302,45L302,60L227,60C218.715,60 212,66.715 212,75L212,120L160.426,120L151.992,44.086C151.5,19.695 131.508,0 107,0L15,0C6.715,0 0,6.715 0,15C0,23.285 6.715,30 15,30ZM242,405C242,413.27 235.27,420 227,420C218.73,420 212,413.27 212,405C212,396.73 218.73,389.988 227,389.988C235.27,389.988 242,396.73 242,405ZM407,420C398.73,420 392,413.27 392,405C392,396.703 398.73,390 407,390C415.27,390 422,396.73 422,405C422,413.27 415.27,420 407,420ZM332,60L422,60L422,120L332,120L332,60ZM242,90L302,90L302,120L242,120L242,90ZM479.293,150L456.383,287.465C455.172,294.73 448.949,300 441.586,300L180.426,300L163.758,150L479.293,150Z" style="fill:rgb(117,117,117);fill-rule:nonzero;"/>
    </g>
    <g transform="matrix(1,0,0,1,0,31)">
        <path d="M227,270C235.285,270 242,263.285 242,255L242,195C242,186.715 235.285,180 227,180C218.715,180 212,186.715 212,195L212,255C212,263.285 218.715,270 227,270Z" style="fill:rgb(117,117,117);fill-rule:nonzero;"/>
    </g>
    <g transform="matrix(1,0,0,1,0,31)">
        <path d="M317,270C325.285,270 332,263.285 332,255L332,195C332,186.715 325.285,180 317,180C308.715,180 302,186.715 302,195L302,255C302,263.285 308.715,270 317,270Z" style="fill:rgb(117,117,117);fill-rule:nonzero;"/>
    </g>
    <g transform="matrix(1,0,0,1,0,31)">
        <path d="M407,270C415.285,270 422,263.285 422,255L422,195C422,186.715 415.285,180 407,180C398.715,180 392,186.715 392,195L392,255C392,263.285 398.715,270 407,270Z" style="fill:rgb(117,117,117);fill-rule:nonzero;"/>
    </g>
</svg>
